<?xml version="1.0" encoding="utf-8"?>
<svg viewBox="0 0 283 324" xmlns="http://www.w3.org/2000/svg" xmlns:xlink="http://www.w3.org/1999/xlink" xmlns:bx="https://boxy-svg.com">
  <defs>
    <linearGradient id="gradient-1">
      <stop offset="0" style="stop-color: rgb(71, 224, 175);"/>
      <stop offset="0.5" style="stop-color: rgb(31, 170, 252);"/>
      <stop offset="1" style="stop-color: rgb(199, 79, 224);"/>
    </linearGradient>
    <linearGradient id="gradient-1-0" gradientUnits="userSpaceOnUse" x1="242.58" y1="105.4" x2="242.58" y2="299.584" gradientTransform="matrix(-0.010988, -1.001776, 0.999362, -0.011002, -65.621613, 343.639694)" xlink:href="#gradient-1"/>
    <style bx:fonts="Titillium Web">@import url(https://fonts.googleapis.com/css2?family=Titillium+Web%3Aital%2Cwght%400%2C200%3B0%2C300%3B0%2C400%3B0%2C600%3B0%2C700%3B0%2C900%3B1%2C200%3B1%2C300%3B1%2C400%3B1%2C600%3B1%2C700&amp;display=swap);</style>
    <style bx:fonts="Poppins">@import url(https://fonts.googleapis.com/css2?family=Poppins%3Aital%2Cwght%400%2C100%3B0%2C200%3B0%2C300%3B0%2C400%3B0%2C500%3B0%2C600%3B0%2C700%3B0%2C800%3B0%2C900%3B1%2C100%3B1%2C200%3B1%2C300%3B1%2C400%3B1%2C500%3B1%2C600%3B1%2C700%3B1%2C800%3B1%2C900&amp;display=swap);</style>
  </defs>
  <path d="M 226.989 189.273 L 190.059 177.041 C 174.199 188.07 154.898 194.541 134.076 194.541 C 91.75 194.541 55.703 167.802 42.082 130.383 L 108.474 130.383 L 108.474 130.393 L 114.702 130.393 L 114.702 160.734 L 114.738 160.734 C 114.723 162.493 115.407 164.306 116.777 165.72 C 119.238 168.26 123.049 168.614 125.597 166.65 L 125.607 166.642 C 125.783 166.505 125.953 166.357 191.601 102.44 C 192.929 101.197 193.669 99.417 193.669 97.515 C 193.669 94.002 190.866 91.106 187.25 90.7 L 187.251 90.652 C 187.251 90.652 186.391 90.652 99.286 90.652 L 140.759 49.104 L 140.759 64.427 L 140.777 64.427 C 140.777 69.139 140.777 71.958 140.777 71.959 L 140.83 71.959 C 141.187 75.507 143.928 78.294 147.311 78.465 L 147.311 78.474 L 215.6 79.664 C 226.779 79.357 231.015 90.82 231.881 97.855 C 231.755 119.12 224.768 138.767 213.01 154.72 L 226.989 189.273 Z M 36.269 97.27 C 36.268 43.55 80.059 0 134.076 0 C 176.655 0 212.879 27.059 226.311 64.828 L 154.465 64.828 C 154.462 63.893 154.458 62.833 154.453 61.628 L 154.442 61.628 L 154.442 43.149 L 154.445 43.149 C 154.445 36.776 154.445 32.819 154.445 32.818 L 154.443 32.818 C 154.426 31.213 153.861 29.638 152.725 28.396 C 150.338 25.786 146.275 25.563 143.33 27.765 L 143.329 27.764 L 143.318 27.774 C 143.115 27.927 142.916 28.093 135.726 34.743 L 135.736 34.754 C 135.736 34.754 77.526 91.559 76.54 94.631 C 76.053 95.529 75.86 96.494 75.86 97.529 C 75.86 101.068 78.706 103.983 82.362 104.352 L 82.362 104.353 L 82.377 104.353 C 82.615 104.377 82.858 104.389 169.976 104.359 C 158.231 115.789 139.903 133.627 127.939 145.27 C 127.939 145.27 128.012 122.288 127.893 122.288 C 127.332 119.344 125.543 116.796 121.535 116.713 C 121.535 116.713 121.517 116.692 108.474 116.692 L 108.474 116.7 C 108.474 116.7 56.698 116.7 53.726 116.7 C 45.271 116.138 37.767 109.499 36.608 101.237" style="stroke: rgb(0, 0, 0); fill: url(#gradient-1-0); stroke-width: 0px; fill-rule: evenodd;"/>
  <text style="font-family: 'Titillium Web'; font-size: 64px; font-weight: 900; white-space: pre; transform-origin: 390.371px 90.003px;" transform="matrix(1, 0, 0, 1.001837, -390.371002, -90.002991)" y="365.271" x="390.371">RealityBR</text>
  <text style="fill: rgb(51, 51, 51); font-family: Poppins; font-size: 23.04px; white-space: pre; transform-origin: 257.674px 90.003px;" x="5.056804656982422" y="312.6071090698242">- AO VIVO | 24 HORAS -</text>
</svg>